<?xml version="1.0" standalone="no"?>
<!DOCTYPE svg PUBLIC "-//W3C//DTD SVG 20010904//EN"
 "http://www.w3.org/TR/2001/REC-SVG-20010904/DTD/svg10.dtd">
<svg version="1.0" xmlns="http://www.w3.org/2000/svg"
 width="600.000000pt" height="600.000000pt" viewBox="0 0 600.000000 600.000000"
 preserveAspectRatio="xMidYMid meet">

<g transform="translate(0.000000,600.000000) scale(0.100000,-0.100000)"
fill="#000000" stroke="none">
<path d="M4005 5939 c-55 -3 -118 -11 -140 -17 -22 -6 -69 -19 -105 -27 -36
-9 -73 -21 -82 -26 -10 -5 -22 -9 -27 -9 -5 0 -39 -13 -74 -30 -36 -16 -69
-30 -74 -30 -16 -1 -232 -136 -311 -195 -101 -75 -516 -491 -848 -850 -67 -71
-138 -148 -160 -170 -21 -22 -73 -78 -114 -124 -62 -70 -344 -382 -530 -586
-52 -57 -202 -217 -242 -257 -16 -16 -28 -30 -28 -32 0 -2 -26 -31 -57 -63
-32 -33 -80 -84 -108 -114 -27 -30 -106 -115 -175 -190 -149 -161 -199 -219
-282 -330 -34 -46 -67 -87 -73 -91 -6 -5 -6 -8 0 -8 6 0 5 -3 -1 -8 -15 -10
-53 -71 -108 -177 -46 -88 -86 -194 -121 -325 -9 -36 -21 -76 -26 -90 -39
-117 -39 -677 1 -790 5 -14 25 -79 46 -145 41 -130 135 -328 211 -442 170
-256 490 -530 728 -622 33 -13 74 -29 90 -36 90 -37 176 -59 270 -70 28 -3 82
-10 121 -16 68 -11 355 -8 419 5 17 3 66 10 110 16 44 6 93 15 110 20 16 6 58
19 93 30 102 33 214 80 265 111 26 16 47 26 47 23 0 -3 15 6 33 20 19 15 39
26 45 26 6 0 12 4 14 8 2 5 26 23 53 42 54 36 467 446 655 650 63 68 149 161
190 205 66 71 242 264 386 424 27 30 65 70 84 90 19 20 67 72 105 115 39 44
81 91 95 105 14 15 43 47 65 72 92 106 206 229 300 324 55 55 141 148 191 205
83 95 173 194 304 335 92 99 224 262 283 350 60 89 166 291 182 350 9 34 10
35 17 55 17 45 38 122 38 140 0 12 4 29 9 38 11 21 34 304 34 422 0 144 -27
358 -54 425 -4 11 -15 47 -24 80 -27 101 -103 265 -183 395 -25 41 -49 77 -52
80 -3 3 -28 34 -54 70 -90 121 -344 355 -446 411 -14 8 -27 17 -30 20 -3 3
-21 14 -40 24 -120 61 -189 95 -195 95 -4 0 -21 6 -38 14 -32 15 -113 38 -197
57 -107 25 -383 33 -595 18z m315 -263 c58 -3 109 -6 113 -6 5 0 6 -3 4 -7 -3
-5 13 -7 35 -7 21 1 76 -9 122 -22 106 -30 289 -108 279 -119 -5 -4 -2 -5 4
-1 15 8 56 -17 45 -28 -4 -4 -2 -7 3 -6 22 5 36 -1 29 -12 -4 -7 -3 -8 5 -4
15 9 64 -21 56 -34 -3 -6 0 -7 8 -4 22 8 201 -141 190 -159 -4 -6 -1 -7 6 -3
13 9 43 -23 34 -37 -2 -4 0 -6 5 -5 14 4 73 -63 65 -75 -3 -6 -1 -7 5 -3 14 9
115 -141 105 -157 -3 -5 -1 -7 4 -4 13 8 26 -20 16 -35 -3 -7 -1 -8 5 -4 14 8
36 -40 26 -56 -4 -6 -3 -8 3 -5 13 8 36 -40 27 -56 -4 -7 -4 -9 1 -5 4 4 14 0
21 -10 17 -22 18 -35 2 -26 -7 4 -3 -4 8 -17 27 -30 43 -76 23 -63 -12 7 -12
5 -1 -9 8 -9 10 -22 6 -28 -4 -8 -3 -9 4 -5 12 7 29 -40 18 -51 -3 -3 -2 -11
3 -17 14 -17 39 -123 47 -196 11 -107 16 -323 7 -317 -4 3 -9 -16 -9 -41 -4
-116 -7 -141 -17 -135 -5 3 -7 1 -4 -4 11 -17 -4 -103 -16 -96 -5 3 -7 1 -3
-5 13 -22 -75 -265 -125 -342 -9 -14 -35 -54 -57 -90 -46 -72 -41 -67 -307
-345 -225 -235 -327 -343 -381 -404 -21 -24 -69 -76 -105 -115 -36 -39 -95
-102 -130 -141 -36 -38 -69 -71 -73 -72 -5 -1 -16 -12 -25 -26 -32 -48 -156
-177 -168 -175 -6 2 -60 50 -120 108 -59 58 -133 127 -165 153 -31 26 -145
136 -255 244 -109 108 -234 230 -278 271 -44 41 -174 168 -290 281 -115 114
-237 231 -270 261 -90 81 -295 278 -518 497 -135 134 -195 199 -190 208 5 8
49 58 98 111 50 54 115 125 145 158 30 33 100 107 156 165 56 58 123 131 149
161 62 71 314 338 473 499 115 119 274 251 300 251 7 0 12 4 12 8 0 8 99 60
191 101 68 30 135 52 168 54 16 1 27 5 25 8 -7 12 293 59 336 52 8 -1 62 -4
120 -7z m-2331 -1882 c22 -20 38 -41 34 -47 -3 -6 -1 -7 4 -4 13 8 46 -27 36
-37 -5 -4 -3 -6 2 -4 6 1 21 -5 35 -15 13 -9 20 -17 15 -17 -6 0 2 -8 18 -18
15 -10 24 -22 20 -25 -3 -4 -1 -7 5 -7 7 0 66 -53 132 -118 66 -64 120 -117
120 -117 0 1 35 -33 78 -74 42 -41 76 -80 74 -86 -2 -5 -1 -7 3 -3 4 4 21 -6
38 -22 18 -16 42 -37 54 -48 13 -10 20 -22 16 -26 -3 -3 0 -6 8 -6 17 0 55
-41 50 -55 -1 -5 0 -7 4 -3 10 10 45 -24 38 -36 -3 -6 -3 -8 2 -4 4 4 49 -32
99 -81 50 -48 108 -103 128 -123 21 -19 34 -38 30 -42 -4 -4 -2 -7 3 -5 16 4
45 -12 39 -22 -3 -5 -1 -9 3 -9 14 0 82 -68 75 -74 -3 -3 -1 -6 4 -6 15 0 64
-46 57 -54 -3 -3 1 -6 11 -6 9 0 14 -4 11 -10 -3 -5 -1 -10 5 -10 19 0 72 -58
64 -71 -5 -8 -3 -9 5 -4 16 9 73 -44 64 -59 -3 -6 -3 -8 2 -4 4 4 13 2 20 -5
7 -7 31 -27 53 -46 23 -19 39 -39 35 -45 -3 -6 -3 -8 1 -4 10 8 51 -28 51 -45
0 -7 5 -12 12 -12 18 0 165 -144 158 -156 -4 -5 -1 -8 6 -7 6 2 14 -3 17 -11
3 -10 0 -11 -9 -5 -11 6 -10 3 1 -11 14 -17 13 -18 -2 -12 -10 3 -17 3 -17 -1
3 -17 -2 -35 -7 -29 -4 3 -21 -12 -39 -33 -18 -21 -36 -36 -40 -32 -5 4 -5 2
-2 -4 8 -13 -98 -126 -108 -116 -3 4 -3 -2 1 -12 5 -13 4 -17 -3 -13 -6 4 -14
0 -17 -9 -3 -8 -11 -12 -17 -8 -8 5 -9 3 -5 -5 5 -8 -4 -23 -23 -40 -17 -15
-28 -31 -23 -35 4 -4 3 -6 -3 -5 -12 4 -81 -62 -77 -74 1 -5 -1 -6 -6 -3 -5 3
-16 -4 -25 -15 -9 -10 -14 -19 -11 -19 3 0 -15 -17 -40 -39 -34 -30 -42 -41
-33 -51 10 -10 7 -10 -12 0 -17 9 -21 9 -16 0 4 -6 -12 -29 -39 -56 -25 -24
-43 -44 -41 -44 3 0 -9 -14 -27 -32 -18 -18 -31 -37 -30 -43 2 -5 1 -7 -3 -3
-10 9 -45 -24 -38 -35 4 -6 -1 -8 -11 -4 -9 4 -15 3 -12 -2 3 -5 -6 -16 -19
-25 -15 -10 -23 -22 -19 -28 5 -7 2 -9 -9 -5 -12 4 -14 2 -10 -10 4 -11 2 -14
-5 -9 -7 4 -12 4 -12 -1 0 -15 -47 -63 -55 -55 -5 4 -5 2 -1 -5 3 -6 -4 -22
-16 -35 -15 -16 -18 -17 -8 -3 15 20 15 20 -8 1 -12 -11 -22 -23 -22 -29 0
-10 -50 -60 -91 -90 -13 -10 -17 -15 -9 -12 8 3 6 0 -4 -7 -11 -7 -28 -21 -38
-30 -10 -10 -23 -18 -29 -18 -5 0 -7 -5 -3 -12 5 -8 2 -9 -9 -5 -10 4 -16 2
-14 -6 1 -7 -4 -11 -12 -9 -8 2 -11 -3 -8 -12 4 -10 0 -14 -14 -11 -11 2 -17
0 -14 -6 6 -8 -8 -13 -27 -10 -4 0 -5 -6 -2 -14 5 -11 2 -13 -12 -8 -13 5 -15
3 -9 -7 6 -10 4 -12 -8 -7 -10 3 -17 2 -17 -4 0 -6 -4 -8 -9 -5 -5 3 -12 -1
-15 -10 -3 -8 -10 -12 -16 -9 -5 3 -10 -1 -10 -9 0 -9 -5 -16 -11 -16 -5 0 -7
5 -3 12 4 7 -6 2 -23 -10 -17 -12 -33 -19 -37 -15 -3 3 -6 2 -6 -4 0 -6 -7
-14 -16 -17 -9 -3 -12 -2 -8 5 3 6 -3 5 -15 -3 -12 -7 -21 -17 -21 -22 0 -4
-9 -6 -20 -3 -10 3 -27 -1 -37 -9 -23 -17 -36 -18 -28 -1 4 6 -1 3 -9 -7 -9
-11 -16 -16 -16 -12 0 5 -6 4 -13 -3 -10 -8 -17 -7 -25 1 -9 9 -12 9 -12 -1 0
-7 -5 -9 -12 -5 -8 5 -9 1 -5 -12 7 -18 7 -18 -8 0 -8 11 -15 15 -15 9 0 -5
-16 -9 -35 -8 -19 1 -35 -2 -35 -6 0 -4 -10 -5 -22 -1 -16 4 -19 2 -13 -9 7
-11 6 -12 -6 -4 -16 12 -39 13 -56 2 -7 -5 -13 -4 -13 0 0 10 -77 9 -87 0 -3
-4 -12 -2 -20 4 -10 9 -13 8 -13 0 0 -7 -5 -9 -12 -5 -7 4 -35 9 -63 10 -57 3
-75 7 -92 17 -6 4 -14 3 -18 -3 -4 -6 -11 -8 -16 -4 -5 3 -6 11 -2 17 4 7 0 6
-10 -2 -14 -11 -20 -11 -34 0 -9 8 -14 9 -10 3 3 -6 0 -11 -8 -11 -8 0 -12 4
-9 9 5 8 0 9 -41 12 -11 1 -31 7 -44 15 -13 7 -21 8 -17 2 10 -15 1 -14 -16 2
-17 16 -78 39 -101 39 -9 -1 -15 3 -12 9 6 8 -8 13 -27 10 -5 0 -8 4 -8 11 0
6 -3 8 -7 5 -3 -4 -15 1 -26 10 -10 10 -22 18 -26 18 -3 0 -5 3 -4 7 2 4 -6 5
-17 3 -13 -3 -26 5 -36 20 -9 14 -20 22 -25 19 -11 -6 -61 30 -54 40 3 3 2 4
-2 1 -3 -3 -13 1 -21 8 -13 10 -14 9 -8 -3 4 -8 -9 3 -29 25 -20 22 -34 34
-30 28 3 -7 1 -13 -4 -13 -6 0 -11 6 -11 14 0 8 -5 18 -12 22 -7 5 -8 3 -3 -6
6 -9 4 -11 -4 -6 -7 5 -10 14 -7 22 3 8 2 13 -2 11 -11 -3 -52 29 -45 36 3 4
-1 7 -9 7 -8 0 -33 21 -54 47 -21 26 -50 57 -62 69 -15 14 -21 28 -16 36 4 7
4 10 0 6 -5 -4 -21 7 -37 23 -31 32 -37 44 -16 34 6 -4 1 3 -12 14 -13 12 -21
27 -18 35 3 8 -2 20 -11 28 -16 12 -16 11 -2 -7 14 -19 14 -19 -3 -6 -14 11
-15 17 -5 28 9 11 8 13 -2 11 -8 -2 -16 6 -18 17 -2 11 -8 22 -12 25 -3 3 -14
36 -24 74 -20 83 -36 413 -19 403 7 -5 9 0 6 13 -7 28 7 131 17 125 4 -3 6 4
3 15 -8 29 26 172 39 164 7 -4 8 -2 4 5 -14 21 63 218 79 203 5 -4 6 -2 3 3
-8 15 10 57 22 50 5 -3 7 0 4 9 -7 18 14 59 26 51 6 -3 7 1 4 9 -3 9 -1 16 5
16 6 0 11 6 11 13 1 19 56 87 65 79 5 -4 5 -2 2 4 -9 15 32 66 45 58 7 -4 8
-2 4 5 -4 6 0 18 8 27 9 8 16 12 17 7 0 -4 3 -1 7 8 11 27 294 314 306 311 6
-2 8 0 3 4 -9 10 23 45 35 38 4 -3 7 0 6 8 -2 7 3 12 9 11 7 -2 12 0 11 5 -3
14 14 42 23 36 5 -3 9 2 9 11 0 9 5 13 10 10 6 -3 10 -1 10 5 0 13 30 46 30
33 0 -4 6 3 13 17 8 14 19 24 25 22 7 -1 11 4 10 10 -2 7 4 11 12 10 8 -2 12
0 7 4 -10 11 23 45 37 37 6 -3 8 -2 3 2 -10 12 23 46 37 38 6 -3 8 -3 4 2 -9
10 73 101 87 97 6 -2 7 0 2 4 -10 11 23 45 37 37 6 -3 8 -2 3 2 -10 11 23 46
36 38 6 -4 7 -1 3 6 -9 13 23 43 37 34 4 -2 6 0 5 5 -5 16 53 82 66 75 6 -3 8
-2 3 2 -9 11 33 56 45 49 5 -3 7 -2 6 3 -3 12 23 56 29 49 4 -3 12 3 20 14 19
27 25 26 72 -16z m-995 -2822 c3 -5 -1 -9 -9 -9 -8 0 -12 4 -9 9 3 4 7 8 9 8
2 0 6 -4 9 -8z"/>
</g>
</svg>
